<svg width="223" height="76" viewBox="0 0 223 76" fill="none" xmlns="http://www.w3.org/2000/svg">
<path d="M40.004 41.3401V75.0001H33.68V57.4561L33.986 47.6131H33.884L24.551 75.0001H18.788L9.50599 47.6131H9.40399L9.76099 57.4561V75.0001H3.38599V41.3401H13.586L19.655 59.7001L21.797 67.2991H21.899L24.092 59.7511L30.11 41.3401H40.004Z" fill="white"/>
<path d="M76.8591 41.3401V61.7401C76.8591 66.3301 75.6351 69.7811 73.1871 72.0931C70.7391 74.3711 67.1691 75.5101 62.4771 75.5101C57.7851 75.5101 54.2151 74.3711 51.7671 72.0931C49.3191 69.7811 48.0951 66.3301 48.0951 61.7401V41.3401H55.1331V61.4341C55.1331 64.2561 55.7281 66.3471 56.9181 67.7071C58.1421 69.0671 59.9951 69.7471 62.4771 69.7471C64.9591 69.7471 66.7951 69.0671 67.9851 67.7071C69.1751 66.3471 69.7701 64.2561 69.7701 61.4341V41.3401H76.8591Z" fill="white"/>
<path d="M97.2571 40.8301C100.317 40.8301 103.003 41.3571 105.315 42.4111C107.627 43.4651 109.599 45.0291 111.231 47.1031L107.304 51.6421C105.91 49.8741 104.38 48.5821 102.714 47.7661C101.082 46.9161 99.1781 46.4911 97.0021 46.4911C95.5741 46.4911 94.3841 46.6781 93.4321 47.0521C92.5141 47.4261 91.8341 47.9191 91.3921 48.5311C90.9841 49.1431 90.7801 49.8231 90.7801 50.5711C90.7801 51.4891 91.1371 52.2711 91.8511 52.9171C92.5651 53.5291 93.7891 54.0391 95.5231 54.4471L101.796 55.8751C105.128 56.6231 107.508 57.7451 108.936 59.2411C110.398 60.7031 111.129 62.6071 111.129 64.9531C111.129 67.1631 110.551 69.0671 109.395 70.6651C108.239 72.2291 106.624 73.4361 104.55 74.2861C102.476 75.1021 100.096 75.5101 97.4101 75.5101C95.0641 75.5101 92.9051 75.2381 90.9331 74.6941C88.9951 74.1161 87.2611 73.3341 85.7311 72.3481C84.2011 71.3621 82.9261 70.2231 81.9061 68.9311L85.8841 64.1881C86.6661 65.2761 87.6351 66.2451 88.7911 67.0951C89.9471 67.9451 91.2561 68.6251 92.7181 69.1351C94.2141 69.6111 95.7781 69.8491 97.4101 69.8491C98.8041 69.8491 99.9771 69.6961 100.929 69.3901C101.915 69.0501 102.646 68.5911 103.122 68.0131C103.632 67.4011 103.887 66.6701 103.887 65.8201C103.887 64.9361 103.581 64.1881 102.969 63.5761C102.391 62.9301 101.303 62.4371 99.7051 62.0971L92.8711 60.5671C90.8991 60.0911 89.1991 59.4791 87.7711 58.7311C86.3771 57.9491 85.3061 56.9631 84.5581 55.7731C83.8441 54.5491 83.4871 53.1041 83.4871 51.4381C83.4871 49.4321 84.0311 47.6301 85.1191 46.0321C86.2071 44.4341 87.7711 43.1761 89.8111 42.2581C91.8851 41.3061 94.3671 40.8301 97.2571 40.8301Z" fill="white"/>
<path d="M117.787 75.0001V41.3401H143.032V47.0011H124.825V55.3651H139.156V60.7711H124.825V69.3391H143.746V75.0001H117.787Z" fill="white"/>
<path d="M178.162 41.3401V61.7401C178.162 66.3301 176.938 69.7811 174.49 72.0931C172.042 74.3711 168.472 75.5101 163.78 75.5101C159.088 75.5101 155.518 74.3711 153.07 72.0931C150.622 69.7811 149.398 66.3301 149.398 61.7401V41.3401H156.436V61.4341C156.436 64.2561 157.031 66.3471 158.221 67.7071C159.445 69.0671 161.298 69.7471 163.78 69.7471C166.262 69.7471 168.098 69.0671 169.288 67.7071C170.478 66.3471 171.073 64.2561 171.073 61.4341V41.3401H178.162Z" fill="white"/>
<path d="M222.887 41.3401V75.0001H216.563V57.4561L216.869 47.6131H216.767L207.434 75.0001H201.671L192.389 47.6131H192.287L192.644 57.4561V75.0001H186.269V41.3401H196.469L202.538 59.7001L204.68 67.2991H204.782L206.975 59.7511L212.993 41.3401H222.887Z" fill="white"/>
<path d="M30.008 0.340088V6.00109H18.737V34.0001H11.699V6.00109H0.376953V0.340088H30.008Z" fill="white"/>
<path d="M64.676 0.340088V34.0001H57.638V0.340088H64.676ZM42.797 0.340088V34.0001H35.759V0.340088H42.797ZM61.31 14.1611V19.8221H39.278V14.1611H61.31Z" fill="white"/>
<path d="M73.4612 34.0001V0.340088H98.7062V6.00109H80.4992V14.3651H94.8301V19.7711H80.4992V28.3391H99.4202V34.0001H73.4612Z" fill="white"/>
</svg>
